
<svg width="133" height="32" viewBox="0 0 133 32" fill="none" xmlns="http://www.w3.org/2000/svg">
  <path d="M37.456 8.168H41.848V24.392H37.456V8.168Z" fill="currentColor"/>
  <path d="M54.992, 8.168H50.6V24.392H54.992V8.168Z" fill="currentColor"/>
  <path d="M61.448 8.168H65.84V20.912H73.744V24.392H61.448V8.168Z" fill="currentColor"/>
  <path d="M106.296 8.168H91.488V11.648H96.592V24.392H100.984V11.648H106.296V8.168Z" fill="currentColor"/>
  <path d="M111.512 8.168H115.904V24.392H111.512V8.168Z" fill="currentColor"/>
  <path d="M125.608 16.28C125.608 14.184 127.16 12.536 129.16 12.536C131.16 12.536 132.712 14.184 132.712 16.28C132.712 18.376 131.16 20.024 129.16 20.024C127.16 20.024 125.608 18.376 125.608 16.28ZM121.312 16.28C121.312 20.6 124.84 24.032 129.16 24.032C133.48 24.032 137 20.6 137 16.28C137 11.96 133.48 8.528 129.16 8.528C124.84 8.528 121.312 11.96 121.312 16.28Z" fill="currentColor"/>
  <path d="M83.04 8.168H78.744V24.392H83.04V18.376H89.224V14.896H83.04V8.168Z" fill="currentColor"/>
  <path d="M8 0H24V32H8V0Z" fill="currentColor"/>
  <path d="M0 8H8V24H0V8Z" fill="currentColor"/>
  <path d="M24 8H32V24H24V8Z" fill="currentColor"/>
</svg>
